<?xml version="1.0" encoding="UTF-8"?>
<svg version="1.1" xmlns="http://www.w3.org/2000/svg" xmlns:xlink="http://www.w3.org/1999/xlink" width="136" height="40" viewBox="0 0 136 40">
    <path fill="#2E3192" d="M40,40H7.5C3.358,40,0,36.642,0,32.5V0h40V40z"/>
    <path fill="#FFFFFF" d="M34.814,18.415l-1.479-1.479c-0.119-0.119-0.28-0.186-0.448-0.186H19.261c-1.211-2.515-3.783-4.25-6.761-4.25C8.358,12.5,5,15.858,5,20s3.358,7.5,7.5,7.5c3.664,0,6.712-2.628,7.368-6.101h0.077c0.168,0,0.329,0.067,0.448,0.186l1.479,1.479c0.248,0.248,0.649,0.248,0.897,0l1.217-1.217c0.248-0.248,0.649-0.248,0.897,0l1.217,1.217c0.248,0.248,0.649,0.248,0.897,0l1.217-1.217c0.248-0.248,0.649-0.248,0.897,0l1.217,1.217c0.248,0.248,0.649,0.248,0.897,0l1.665-1.665l1.928-2.088C35.062,19.064,35.062,18.663,34.814,18.415z M9,22c-1.105,0-2-0.895-2-2s0.895-2,2-2s2,0.895,2,2S10.105,22,9,22z"/>
    <path fill="#2E3192" d="M47.231,0h11.232v3.342h-7.062v3.862h6.232v3.342h-6.232v2.227c0,0.79,0.154,1.331,0.462,1.623c0.308,0.293,0.818,0.438,1.528,0.438h5.19v3.365h-6.848c-1.501,0-2.627-0.415-3.377-1.244c-0.751-0.83-1.126-2.026-1.126-3.59V0z M61.497,0h3.721l6.706,10.782V0h4.171v18.199h-3.673l-6.73-10.782v10.782h-4.195V0z M83.037,3.318h-4.716V0h13.626v3.318h-4.739v14.881h-4.171V3.318z M94.151,0h6.446c1.058,0,1.998,0.111,2.82,0.332c0.821,0.221,1.517,0.569,2.085,1.043c0.569,0.474,0.999,1.09,1.292,1.848c0.292,0.758,0.438,1.667,0.438,2.725c0,0.696-0.063,1.307-0.189,1.837c-0.127,0.529-0.316,0.999-0.569,1.41c-0.253,0.411-0.557,0.774-0.912,1.09c-0.355,0.316-0.762,0.601-1.22,0.853c0.442,0.395,0.873,0.893,1.292,1.493c0.418,0.601,0.798,1.229,1.137,1.884c0.34,0.656,0.628,1.291,0.865,1.907c0.237,0.616,0.411,1.146,0.521,1.588v0.189h-4.171c-0.095-0.363-0.253-0.821-0.474-1.374c-0.221-0.553-0.486-1.118-0.794-1.694c-0.308-0.577-0.648-1.114-1.019-1.612c-0.371-0.498-0.739-0.88-1.102-1.149h-2.275v5.829h-4.171V0z M100.052,9.171c1.106,0,1.888-0.276,2.346-0.83c0.458-0.553,0.687-1.295,0.687-2.227c0-1.058-0.221-1.789-0.664-2.192c-0.443-0.403-1.153-0.604-2.133-0.604h-1.967v5.853H100.052z M110.431,0h11.232v3.342h-7.062v3.862h6.232v3.342h-6.232v2.227c0,0.79,0.154,1.331,0.462,1.623c0.308,0.293,0.818,0.438,1.528,0.438h5.19v3.365h-6.848c-1.501,0-2.627-0.415-3.377-1.244c-0.751-0.83-1.126-2.026-1.126-3.59V0z M124.649,0h11.232v3.342h-7.062v3.862h6.232v3.342h-6.232v2.227c0,0.79,0.154,1.331,0.462,1.623c0.308,0.293,0.818,0.438,1.528,0.438H136v3.365h-6.848c-1.501,0-2.627-0.415-3.377-1.244c-0.751-0.83-1.126-2.026-1.126-3.59V0z"/>
    <path fill="#8183BD" d="M48.79,30.028h-1.559v-2.157h1.559v-0.47c0-1.309,0.37-2.299,1.111-2.968c0.74-0.669,1.736-1.003,2.99-1.003h1.495v2.114h-1.068c-0.683,0-1.16,0.143-1.431,0.427c-0.271,0.285-0.406,0.769-0.406,1.452v0.448h2.563v2.157h-2.563v9.801H48.79V30.028z M54.897,32.612c0-0.812,0.135-1.523,0.406-2.136c0.27-0.612,0.644-1.124,1.121-1.537c0.477-0.413,1.039-0.722,1.687-0.929c0.648-0.206,1.349-0.31,2.103-0.31c0.626,0,1.207,0.068,1.74,0.203c0.534,0.135,0.993,0.349,1.377,0.64c0.384,0.292,0.687,0.662,0.908,1.111c0.221,0.448,0.331,0.986,0.331,1.612c0,1.153-0.335,2.011-1.004,2.573c-0.669,0.562-1.609,0.843-2.819,0.843h-3.16v0.726c0,0.854,0.256,1.466,0.769,1.836c0.512,0.37,1.16,0.555,1.943,0.555c0.669,0,1.295-0.078,1.879-0.235c0.584-0.156,1.046-0.306,1.388-0.448h0.171v2.156c-0.185,0.072-0.409,0.15-0.673,0.235c-0.264,0.086-0.555,0.164-0.875,0.235c-0.32,0.071-0.659,0.131-1.015,0.181C60.819,39.975,60.471,40,60.129,40c-0.74,0-1.431-0.085-2.071-0.256c-0.641-0.171-1.196-0.441-1.666-0.811c-0.47-0.37-0.837-0.847-1.1-1.431c-0.264-0.584-0.395-1.295-0.395-2.136V32.612z M57.588,33.06h2.605c0.712,0,1.199-0.139,1.463-0.416c0.263-0.277,0.395-0.687,0.395-1.228c0-0.541-0.168-0.929-0.502-1.164c-0.335-0.235-0.787-0.352-1.356-0.352c-0.826,0-1.466,0.214-1.922,0.64c-0.456,0.427-0.683,1.111-0.683,2.05V33.06z M66.407,33.551c0-0.868,0.167-1.655,0.502-2.359c0.334-0.705,0.776-1.302,1.324-1.794c0.548-0.492,1.182-0.868,1.901-1.132c0.719-0.263,1.463-0.395,2.232-0.395h1.303v-4.442h2.669v16.4h-2.669v-1.9l-0.79,0.726c-0.413,0.384-0.872,0.705-1.377,0.961C70.995,39.872,70.386,40,69.674,40c-0.456,0-0.883-0.071-1.281-0.214c-0.399-0.142-0.744-0.363-1.036-0.662c-0.292-0.299-0.523-0.687-0.694-1.164c-0.171-0.477-0.256-1.05-0.256-1.719V33.551z M73.668,35.729v-5.701h-1.089c-0.498,0-0.961,0.082-1.388,0.246c-0.427,0.164-0.797,0.398-1.11,0.705c-0.313,0.306-0.555,0.676-0.726,1.111c-0.171,0.434-0.256,0.915-0.256,1.441v2.413c0,0.712,0.142,1.189,0.427,1.431c0.285,0.242,0.633,0.363,1.046,0.363c0.242,0,0.484-0.053,0.726-0.16c0.242-0.107,0.477-0.235,0.705-0.384c0.228-0.15,0.438-0.31,0.63-0.481c0.192-0.171,0.359-0.327,0.502-0.47L73.668,35.729z M79.049,32.612c0-0.812,0.135-1.523,0.406-2.136c0.27-0.612,0.644-1.124,1.121-1.537c0.477-0.413,1.039-0.722,1.687-0.929c0.648-0.206,1.349-0.31,2.103-0.31c0.626,0,1.207,0.068,1.74,0.203c0.534,0.135,0.993,0.349,1.377,0.64c0.384,0.292,0.687,0.662,0.908,1.111c0.221,0.448,0.331,0.986,0.331,1.612c0,1.153-0.335,2.011-1.004,2.573c-0.669,0.562-1.609,0.843-2.819,0.843h-3.16v0.726c0,0.854,0.256,1.466,0.769,1.836c0.512,0.37,1.16,0.555,1.943,0.555c0.669,0,1.295-0.078,1.879-0.235c0.584-0.156,1.046-0.306,1.388-0.448h0.171v2.156c-0.185,0.072-0.409,0.15-0.673,0.235c-0.264,0.086-0.555,0.164-0.876,0.235c-0.32,0.071-0.659,0.131-1.014,0.181C84.971,39.975,84.622,40,84.281,40c-0.74,0-1.431-0.085-2.071-0.256c-0.641-0.171-1.196-0.441-1.666-0.811c-0.47-0.37-0.837-0.847-1.1-1.431c-0.264-0.584-0.395-1.295-0.395-2.136V32.612z M81.739,33.06h2.605c0.712,0,1.199-0.139,1.463-0.416c0.263-0.277,0.395-0.687,0.395-1.228c0-0.541-0.168-0.929-0.502-1.164c-0.335-0.235-0.787-0.352-1.356-0.352c-0.826,0-1.466,0.214-1.922,0.64c-0.456,0.427-0.683,1.111-0.683,2.05V33.06z M91.327,27.871h2.691v2.242l0.342-0.448c0.384-0.526,0.815-0.961,1.292-1.302c0.477-0.342,1.057-0.513,1.74-0.513h0.726v2.477h-0.876c-0.456,0-0.861,0.072-1.217,0.213c-0.356,0.143-0.683,0.349-0.982,0.619l-1.025,1.004v7.666h-2.691V27.871z M99.228,33.551c0-0.868,0.167-1.655,0.502-2.359c0.334-0.705,0.776-1.302,1.324-1.794c0.548-0.492,1.182-0.868,1.901-1.132c0.719-0.263,1.463-0.395,2.232-0.395h3.972v11.958h-2.669v-1.9l-0.79,0.726c-0.413,0.384-0.872,0.705-1.377,0.961c-0.506,0.256-1.114,0.384-1.826,0.384c-0.456,0-0.883-0.071-1.281-0.214c-0.399-0.142-0.744-0.363-1.036-0.662c-0.292-0.299-0.523-0.687-0.694-1.164c-0.171-0.477-0.256-1.05-0.256-1.719V33.551z M106.489,35.729v-5.701h-1.089c-0.498,0-0.961,0.082-1.388,0.246c-0.427,0.164-0.798,0.398-1.111,0.705c-0.313,0.306-0.555,0.676-0.726,1.111c-0.171,0.434-0.256,0.915-0.256,1.441v2.413c0,0.712,0.142,1.189,0.427,1.431c0.285,0.242,0.633,0.363,1.046,0.363c0.242,0,0.484-0.053,0.726-0.16c0.242-0.107,0.477-0.235,0.705-0.384c0.228-0.15,0.438-0.31,0.63-0.481c0.192-0.171,0.359-0.327,0.502-0.47L106.489,35.729z M112.66,30.028h-1.559v-2.157h1.559V25.01h2.691v2.861h2.968v2.157h-2.968v5.104c0,0.512,0.035,0.933,0.107,1.26c0.071,0.328,0.196,0.584,0.374,0.769c0.178,0.185,0.413,0.313,0.705,0.384c0.292,0.071,0.658,0.107,1.1,0.107h0.94v2.178h-1.644c-1.381,0-2.438-0.334-3.171-1.003c-0.733-0.669-1.1-1.751-1.1-3.246V30.028z M120.924,30.028h-1.602v-2.157h4.292v11.958h-2.691V30.028z M120.924,23.429h2.691v2.413h-2.691V23.429z M126.327,32.612c0-0.812,0.135-1.523,0.406-2.136c0.27-0.612,0.644-1.124,1.121-1.537c0.477-0.413,1.039-0.722,1.687-0.929c0.648-0.206,1.349-0.31,2.103-0.31c0.626,0,1.207,0.068,1.74,0.203c0.534,0.135,0.993,0.349,1.377,0.64c0.384,0.292,0.687,0.662,0.908,1.111C135.89,30.103,136,30.64,136,31.266c0,1.153-0.335,2.011-1.004,2.573c-0.669,0.562-1.609,0.843-2.819,0.843h-3.16v0.726c0,0.854,0.256,1.466,0.769,1.836c0.512,0.37,1.16,0.555,1.943,0.555c0.669,0,1.295-0.078,1.879-0.235c0.584-0.156,1.046-0.306,1.388-0.448h0.171v2.156c-0.185,0.072-0.409,0.15-0.673,0.235c-0.264,0.086-0.555,0.164-0.875,0.235c-0.32,0.071-0.659,0.131-1.015,0.181C132.249,39.975,131.9,40,131.558,40c-0.74,0-1.431-0.085-2.071-0.256s-1.196-0.441-1.666-0.811c-0.47-0.37-0.837-0.847-1.1-1.431c-0.264-0.584-0.395-1.295-0.395-2.136V32.612z M129.017,33.06h2.605c0.712,0,1.199-0.139,1.463-0.416c0.263-0.277,0.395-0.687,0.395-1.228c0-0.541-0.168-0.929-0.502-1.164c-0.335-0.235-0.787-0.352-1.356-0.352c-0.826,0-1.466,0.214-1.922,0.64c-0.456,0.427-0.683,1.111-0.683,2.05V33.06z"/>
</svg>